<?xml version="1.0" encoding="UTF-8"?><svg id="Layer_1" xmlns="http://www.w3.org/2000/svg" width="1921.7" height="1080.6" xmlns:xlink="http://www.w3.org/1999/xlink" viewBox="0 0 1921.7 1080.6"><defs><style>.cls-1{fill:none;}.cls-2{clip-path:url(#clippath);}.cls-3{fill:#303f96;}.cls-4{fill:#25469b;}.cls-5{fill:#204a9d;}.cls-6{fill:#1f4a9e;}.cls-7{fill:#1e4b9e;}.cls-8{fill:#24479b;}.cls-9{fill:#23489c;}.cls-10{fill:#22489c;}.cls-11{fill:#21499d;}.cls-12{fill:#1d4c9e;}.cls-13{fill:#3e4591;}.cls-14{fill:#28449a;}.cls-15{fill:#2a4399;}.cls-16{fill:#2b4299;}.cls-17{fill:#2d4198;}.cls-18{fill:#4a5aa5;}.cls-19{fill:#294499;}.cls-20{fill:#2c4198;}.cls-21{fill:#2e4097;}.cls-22{fill:#2f3f97;}.cls-23{fill:#3b4696;}.cls-24{fill:#313e96;}.cls-25{fill:#26469b;}.cls-26{fill:#5e69aa;}.cls-27{fill:#27459a;}.cls-28{isolation:isolate;opacity:.5;}</style><clipPath id="clippath"><path class="cls-1" d="m1921.2,134.6s-89.1,11.5-106.2-18.7c-17-30.2-25.6-53.2-74.6-56.1C1691.4,56.9,1627.5,0,1627.5,0h293.7v134.6Z"/></clipPath></defs><rect class="cls-26" x="1.7" y=".8" width="1917.4" height="1079.4"/><g id="Graphic"><path class="cls-23" d="m185.1,0s204.5,48.2,326,246.8c121.4,198.6,181.8,331.1,452,422.4,270.2,91.4,468.3,135.2,602.6,272.7,134.3,137.5,204.5,137.5,204.5,137.5h151.5V0H185.1Z"/><path class="cls-18" d="m1060.7,0s-6.1,135.3,204.5,200,268.4,146.1,306.8,249.7c38.3,103.6,188.2,181.4,349.7,248.3V0h-861Z"/><path class="cls-13" d="m1219.7,136.4c73.7,73.8,222.6,97.8,314.1,161.1,56.6,39.1,59.9,95.1,95,140.3,54.6,70.4,169.6,114,292.9,143.6V0h-761.9c-14.1.1,21.9,81.9,25.8,89.9,8.3,16.7,19.8,32.1,34.1,46.5h0Z"/><path class="cls-23" d="m4.4,772s134.1-29.7,195.6,35.6c61.5,65.3,30.5,83,173.3,83s274.4-10.9,300.8,89c26.3,99.9,184.3,99.9,184.3,99.9H4.4v-307.5h0Z"/><g class="cls-2"><polygon class="cls-12" points="1921.2 .28 1920.97 0 1921.2 0 1921.2 .28"/><polygon class="cls-7" points="1921.2 10.37 1912.65 0 1920.97 0 1921.2 .28 1921.2 10.37"/><polygon class="cls-6" points="1921.2 20.46 1904.33 0 1912.65 0 1921.2 10.37 1921.2 20.46"/><polygon class="cls-5" points="1921.2 30.55 1896.01 0 1904.33 0 1921.2 20.46 1921.2 30.55"/><polygon class="cls-11" points="1921.2 40.64 1887.69 0 1896.01 0 1921.2 30.55 1921.2 40.64"/><polygon class="cls-10" points="1921.2 50.73 1879.37 0 1887.69 0 1921.2 40.64 1921.2 50.73"/><polygon class="cls-9" points="1921.2 60.82 1871.05 0 1879.37 0 1921.2 50.73 1921.2 60.82"/><polygon class="cls-8" points="1921.2 70.91 1862.73 0 1871.05 0 1921.2 60.82 1921.2 70.91"/><polygon class="cls-4" points="1921.2 81 1854.41 0 1862.73 0 1921.2 70.91 1921.2 81"/><polygon class="cls-25" points="1921.2 91.09 1846.09 0 1854.41 0 1921.2 81 1921.2 91.09"/><polygon class="cls-27" points="1921.2 101.19 1837.77 0 1846.09 0 1921.2 91.09 1921.2 101.19"/><polygon class="cls-14" points="1921.2 111.28 1829.45 0 1837.77 0 1921.2 101.19 1921.2 111.28"/><polygon class="cls-19" points="1921.2 121.37 1821.13 0 1829.45 0 1921.2 111.28 1921.2 121.37"/><polygon class="cls-15" points="1921.2 131.46 1812.81 0 1821.13 0 1921.2 121.37 1921.2 131.46"/><polygon class="cls-16" points="1921.2 137.19 1919.06 138.95 1804.49 0 1812.81 0 1921.2 131.46 1921.2 137.19"/><polygon class="cls-20" points="1919.06 138.95 1914.11 143.04 1796.17 0 1804.49 0 1919.06 138.95"/><polygon class="cls-17" points="1914.11 143.04 1910.4 146.1 1908.31 146.1 1787.85 0 1796.17 0 1914.11 143.04"/><polygon class="cls-21" points="1899.99 146.1 1779.53 0 1787.85 0 1908.31 146.1 1899.99 146.1"/><polygon class="cls-22" points="1891.67 146.1 1771.21 0 1779.53 0 1899.99 146.1 1891.67 146.1"/><polygon class="cls-3" points="1883.35 146.1 1762.89 0 1771.21 0 1891.67 146.1 1883.35 146.1"/><polygon class="cls-24" points="1875.03 146.1 1754.57 0 1762.89 0 1883.35 146.1 1875.03 146.1"/><polygon class="cls-24" points="1754.57 0 1875.03 146.1 1627.5 146.1 1627.5 0 1754.57 0"/></g><path class="cls-18" d="m4.4,1079.4h286.9c-15.7-6.6-23.4-19.1-36.2-28.1-27.7-19.6-71.6-21-101.3-39.8-18.3-11.7-27.5-26.5-42.2-39.9-16.5-15-42.6-21.5-68.5-26.2-5.1-.9-27.4-6.3-38.8-5l.1,139h0Z"/></g><g class="cls-28"><rect class="cls-23" y=".4" width="1920.8" height="1080.2"/></g></svg>