<svg id="Layer_1" data-name="Layer 1" xmlns="http://www.w3.org/2000/svg" width="4385" height="2656" viewBox="0 0 4385 2656"><defs><style>.cls-1{fill:#3b4696;}</style></defs><path class="cls-1" d="M4385,2586.42a2888.84,2888.84,0,0,1-486.46,66.25c-513.87,25.74-684.3-105.28-1141.93-134.87-579-37.43-526,158-1141.93,120.67-381-23.12-522.21-105.26-970.63-106.47A3723.77,3723.77,0,0,0,0,2586.42V31a1910.87,1910.87,0,0,0,418,71c280.87,15.82,439.31-38.92,638.1-71,556.5-89.74,615,129.65,1257.49,71,367.4-33.54,363.9-106.71,676-101.74C3294.45,5.09,3426.93,77,3750.09,90.15A2405.6,2405.6,0,0,0,4385,31Z" transform="translate(0 0)"/></svg>