<?xml version="1.0" encoding="UTF-8"?><svg id="Layer_1" xmlns="http://www.w3.org/2000/svg" width="1920" height="1080" xmlns:xlink="http://www.w3.org/1999/xlink" viewBox="0 0 1920 1080"><defs><style>.cls-1{fill:url(#linear-gradient);}.cls-2{fill:#afb2d7;}.cls-3,.cls-4{fill:#d4d7f2;}.cls-5{fill:#4a5aa5;}.cls-6{fill:#3b4696;}.cls-4{opacity:.15;}</style><linearGradient id="linear-gradient" x1="2036.61" y1="-150.52" x2="1793.92" y2="49.59" gradientUnits="userSpaceOnUse"><stop offset="0" stop-color="#005faa"/><stop offset="1" stop-color="#313e96"/></linearGradient></defs><g><rect class="cls-3" x="0" y=".6" width="1917.41" height="1079.4"/><g id="Graphic"><path class="cls-6" d="M183.39-.15s204.52,48.18,325.95,246.79c121.43,198.6,181.77,331.06,451.98,422.42,270.22,91.36,468.35,135.22,602.56,272.69,134.21,137.47,204.52,137.47,204.52,137.47h151.6V-.15H183.39Z"/><path class="cls-5" d="M1058.98-.15s-6.12,135.29,204.52,200.03c210.64,64.74,268.43,146.06,306.78,249.68,38.35,103.62,188.16,181.39,349.73,248.29V-.15h-861.02Z"/><path class="cls-2" d="M1217.99,136.17c73.68,73.83,222.59,97.83,314.14,161.09,56.6,39.12,59.93,95.1,95,140.29,54.62,70.39,169.57,114.05,292.88,143.62V-.15s-761.57,0-761.91,0c-14.05,.09,21.86,81.9,25.84,89.9,8.28,16.64,19.73,32.07,34.06,46.43Z"/><path class="cls-6" d="M2.65,771.81s134.13-29.65,195.58,35.58c61.45,65.23,30.53,83.02,173.27,83.02s274.42-10.91,300.75,88.95c26.33,99.86,184.34,99.86,184.34,99.86H2.65v-307.41Z"/><path class="cls-1" d="M1919.49,134.41s-89.14,11.46-106.18-18.74c-17.04-30.19-25.56-53.22-74.56-56.1-49-2.88-112.91-59.75-112.91-59.75h293.65s0,134.59,0,134.59Z"/><path class="cls-5" d="M2.65,1079.19c95.64,0,191.29,.03,286.93,.03-15.68-6.6-23.4-19.06-36.17-28.08-27.71-19.56-71.57-20.96-101.29-39.84-18.34-11.65-27.47-26.46-42.16-39.86-16.49-15.05-42.63-21.45-68.51-26.24-5.09-.94-27.44-6.33-38.8-5.01v139Z"/></g></g><rect class="cls-4" x="0" y="1" width="1917" height="1078"/></svg>