<svg id="Layer_1" data-name="Layer 1" xmlns="http://www.w3.org/2000/svg" width="1920" height="1080" viewBox="0 0 1920 1080"><defs><style>.cls-1{fill:#7c80aa;}.cls-2,.cls-4{fill:#afb2d7;}.cls-3{fill:#d4d7f2;}.cls-4{opacity:0.77;}</style></defs><path class="cls-1" d="M725.26,725.18c-306.22,145.1-602.13,96.2-725,68v-404a1989.35,1989.35,0,0,1,1018-387c17.74-.83,111.81-3.67,160,60,39.1,51.67,26.27,118.41,20,151C1166.21,379.91,985.27,602,725.26,725.18Z"/><path class="cls-2" d="M867.26,38.18c-168.82,61-274.67,142.73-339,204-147.07,140.07-184.33,275-306,296-88.37,15.26-170.85-38.31-222-80V.18h1024Z"/><path class="cls-3" d="M1920.26,339.51c-320.94,200.87-461.36,191-530,142.56-99.43-70.18-70.87-237.32-206-325.27-80-52.08-174.06-48.19-235-39.16-28.06-2.51-50.65-23.24-55-49.19-5-29.83,15.1-60.57,47-68.27h979Z"/><path class="cls-2" d="M1447.26,506.18a732.45,732.45,0,0,0-137-15c-155.08-2.23-278.52,45.69-353,83h0c20.93-184.58,74.11-250.31,121-275,20.13-10.59,72.08-31,95-82,10.31-23,11.55-45,11-60a733.15,733.15,0,0,1,108,95C1377.54,343.59,1422.83,439.34,1447.26,506.18Z"/><path class="cls-2" d="M863.26,1080.18H.26v-310a1026.18,1026.18,0,0,0,292,45c223.94,1.73,396.53-71.07,489-119Q822.26,888.18,863.26,1080.18Z"/><path class="cls-3" d="M1371.26,1080.18h-712c98.38-95.49,122.25-176.44,125-234,3.66-76.68-30-114.83-6-172,12-28.44,35.59-55.44,181-116,192.11-80,300-123.64,370-71,22.87,17.2,35.32,39.3,42,54Z"/><path class="cls-1" d="M1920.26,1080.18h-638c43.41-45.59,91.23-107.78,73-153-21-52-110.86-35.84-148-85-31.77-42-27.24-135,122-355,60.59,1.84,143.38-4.9,226-47,167.86-85.53,217.53-257.17,288-243,24.83,5,55.09,33.63,77,140Z"/><rect class="cls-4" y="1" width="1920" height="1080"/></svg>