<svg id="Layer_1" data-name="Layer 1" xmlns="http://www.w3.org/2000/svg" width="1920" height="1080" viewBox="0 0 1920 1080"><defs><style>.cls-1{fill:#3b4696;}</style></defs><path class="cls-1" d="M1920,1080a599.21,599.21,0,0,0-118-33c-151.29-25.92-247.4,18.75-373,33-140.83,16-135.48-27.09-339-38-368.68-19.77-480.51,116.48-710,55-32.1-8.6-119.73-35.33-239-33A762.16,762.16,0,0,0,0,1080V0C107.52-5.77,193.12,1.45,251,9c87.18,11.37,120.31,24.62,198,28,101.43,4.42,175.83-12.46,214-20,170.44-33.67,461.59-47.62,721,4,135.71,27,229.35,65.32,375,36A613.6,613.6,0,0,0,1920,0Z"/></svg>