<svg id="Layer_1" data-name="Layer 1" xmlns="http://www.w3.org/2000/svg" width="1920" height="1253.79" viewBox="0 0 1920 1253.79"><defs><style>.cls-1{fill:#a6aacc;}.cls-2{fill:#9ea3c6;}.cls-3{fill:#afb2d7;}</style></defs><path class="cls-1" d="M1920,1188.06c-207.43,56.86-383.91,65.87-507.51,62.81-125.68-3.1-246.48-6.09-396-57.24C780.84,1113,778.88,1017.22,613.94,1004.15c-147.57-11.69-279,54.47-403.44,117.09A1316,1316,0,0,0,0,1253.79V0C17.79,19.22,46.07,44.93,85.63,62.34c74.7,32.89,144.24,16.19,177.82,8.47C397.67,40,550.27,16,608.49,10.8,809.05-7.26,822.93,112.22,1112.06,151.51c148.07,20.12,264.28,5.07,342.14-5.57,202-27.6,361.21-93.07,465.8-145.94Z"/><path class="cls-2" d="M1920,1111.24c-207.43,52.83-383.91,61.2-507.51,58.36-125.68-2.88-246.48-5.66-396-53.18-235.62-74.87-237.58-163.88-402.52-176-147.57-10.86-279,50.59-403.44,108.78A1333,1333,0,0,0,0,1172.31V7.55C17.79,25.4,46.07,49.29,85.63,65.46c74.7,30.55,144.24,15,177.82,7.87,134.22-28.67,286.82-50.88,345-55.75C809.05.81,822.93,111.8,1112.06,148.3c148.07,18.69,264.28,4.7,342.14-5.18A1558,1558,0,0,0,1920,7.55Z"/><path class="cls-3" d="M1920,1072.65c-207.43,51.35-383.91,59.48-507.51,56.72-125.68-2.81-246.48-5.5-396-51.69-235.62-72.76-237.58-159.27-402.52-171.07-147.57-10.55-279,49.18-403.44,105.72A1342.41,1342.41,0,0,0,0,1132V0C17.79,17.35,46.07,40.57,85.63,56.29,160.33,86,229.87,70.91,263.45,63.93c134.22-27.86,286.82-49.45,345-54.18,200.56-16.3,214.44,91.57,503.57,127,148.07,18.17,264.28,4.58,342.14-5A1591.74,1591.74,0,0,0,1920,0Z"/></svg>