<svg id="Layer_1" data-name="Layer 1" xmlns="http://www.w3.org/2000/svg" width="1920" height="1132" viewBox="0 0 1920 1132"><defs><style>.cls-1{fill:#5063aa;}.cls-2{fill:#4554a0;}.cls-3{fill:#3b4696;}</style></defs><path class="cls-1" d="M1920,996.74c-222.85,129.89-392.66,143.84-507.57,131.81-171.51-18-223.82-94.1-561.08-167.52-126.35-27.51-198.23-42.61-300-37.92-106.91,4.93-163.12,27.82-341,52-89,12.11-162.5,18.28-210.53,21.6V44.48H1920Z"/><path class="cls-2" d="M1920,978.74c-222.85,129.89-392.66,143.84-507.57,131.81-171.51-18-223.82-94.1-561.08-167.52-126.35-27.51-198.23-42.61-300-37.92-106.91,4.93-163.12,27.82-341,52-89,12.11-162.5,18.28-210.53,21.6V26.48H1920Z"/><path class="cls-3" d="M1920.2,945.47c-222.84,129-392.65,142.82-507.56,130.88-171.5-17.83-223.8-93.44-561.05-166.34-126.35-27.3-198.23-42.3-300-37.64C444.65,877.26,388.44,900,210.52,924,121.47,936.05,48,942.17,0,945.47V0H1920.2Z"/></svg>