<svg id="Layer_1" data-name="Layer 1" xmlns="http://www.w3.org/2000/svg" width="1595.29" height="1041.75" viewBox="0 0 1595.29 1041.75"><defs><style>.cls-1{fill:#a6aacc;}.cls-2{fill:#9ea3c6;}.cls-3{fill:#afb2d7;}</style></defs><path class="cls-1" d="M1595.29,1000.08c-172.34,47.25-319,54.73-421.68,52.19-104.42-2.58-204.79-5.06-329-47.56-195.77-67-197.4-146.58-334.45-157.44-122.61-9.71-231.82,45.26-335.21,97.29A1093.68,1093.68,0,0,0,0,1054.69V12.94c14.79,16,38.28,37.34,71.15,51.8,62.07,27.32,119.85,13.45,147.75,7C330.42,46.14,457.21,26.27,505.58,21.92,672.22,6.91,683.75,106.19,924,138.83c123,16.72,219.58,4.21,284.28-4.63,167.82-22.93,300.12-77.33,387-121.26Z" transform="translate(0 -12.94)"/><path class="cls-2" d="M1595.29,936.25c-172.34,43.9-319,50.85-421.68,48.49-104.42-2.39-204.79-4.7-329-44.18C648.79,878.35,647.16,804.39,510.11,794.3c-122.61-9-231.82,42-335.21,90.38A1108.56,1108.56,0,0,0,0,987V19.21C14.79,34.05,38.28,53.9,71.15,67.34,133.22,92.72,191,79.83,218.9,73.87,330.42,50.05,457.21,31.59,505.58,27.55,672.22,13.61,683.75,105.84,924,136.16c123,15.53,219.58,3.91,284.28-4.3a1294.2,1294.2,0,0,0,387-112.65Z" transform="translate(0 -12.94)"/><path class="cls-3" d="M1595.29,904.19c-172.34,42.66-319,49.42-421.68,47.13-104.42-2.34-204.79-4.58-329-43C648.79,847.91,647.16,776,510.11,766.23c-122.61-8.77-231.82,40.86-335.21,87.84A1115.22,1115.22,0,0,0,0,953.5V12.94C14.79,27.36,38.28,46.65,71.15,59.71,133.22,84.38,191,71.86,218.9,66.06,330.42,42.91,457.21,25,505.58,21,672.22,7.5,683.75,97.13,924,126.6c123,15.09,219.58,3.8,284.28-4.18a1322.26,1322.26,0,0,0,387-109.48Z" transform="translate(0 -12.94)"/></svg>